<svg xmlns="http://www.w3.org/2000/svg" viewBox="0 0 600 600"><defs><style>.cls-1{isolation:isolate;}.cls-2,.cls-3{fill:#f4dd95;}.cls-2{opacity:0.65;}.cls-4{opacity:0.55;}.cls-4,.cls-5{mix-blend-mode:multiply;}.cls-5{opacity:0.3;}</style></defs><g class="cls-1"><g id="Layer_1" data-name="Layer 1"><circle class="cls-2" cx="300" cy="300" r="200"/><circle class="cls-3" cx="300" cy="300" r="100"/><g class="cls-4"><g id="mUqw13" class="cls-5"><path class="cls-3" d="M305.7,200v2.1c-1.35,1.12-1.35,1.12-3.44.3-.35-.21-.16-.56-.27-.81a3.23,3.23,0,0,0-.58-.66c.16-.33.68-.43.59-.93Z"/><path class="cls-3" d="M296.46,200a.37.37,0,0,0,.24.48l-1.85,1.86c-1.32-.12-1.32-.12-1.47-2.34Z"/><path class="cls-3" d="M340.22,241.91v2.42l-1.58,2-2-.87-.86-2,2-1.57Z"/><path class="cls-3" d="M387.67,298.09v2.33l-1.53,1.92a3.67,3.67,0,0,1-2.65-2.08,4.59,4.59,0,0,1,1.35-2.17Z"/><path class="cls-3" d="M396.3,315.34v2.34l-1.53,1.92a3.67,3.67,0,0,1-2.65-2.08,4.59,4.59,0,0,1,1.35-2.18Z"/><path class="cls-3" d="M344.53,246.31v2.34L343,250.57a3.66,3.66,0,0,1-2.65-2.08,4.59,4.59,0,0,1,1.35-2.18Z"/><path class="cls-3" d="M379.05,280.83v2.33l-1.54,1.93a3.73,3.73,0,0,1-2.65-2.09,4.72,4.72,0,0,1,1.35-2.17Z"/><path class="cls-3" d="M314.33,216.11v2.42l-1.95,1.77c-1-.16-1.64-1-2.25-2,.46-.63.43-1.59,1.57-2.15Z"/><path class="cls-3" d="M310,213.86l-1.6,2.28c-1.16-.63-2.38-.83-2.55-2.29-.06-.37.77-.5.32-1.2l1.94-.87c1.22-.19,1.43.53,1.89.86Z"/><path class="cls-3" d="M344.64,252.64c.67-.34.39-1.46,1.18-1.85.52-.52,1.65-.3,3,.59v1.91c-.35,1-1.42.78-2,1.39A2.65,2.65,0,0,1,344.64,252.64Z"/><path class="cls-3" d="M370.52,278.44a1,1,0,0,0,.5-1.09c.85-.14,1.39-1,2.55-.9,1.36.21,1.17,1.4,1.15,2.78l-2.05,1.43A2.92,2.92,0,0,1,370.52,278.44Z"/><path class="cls-3" d="M353.16,257.8l-2.23,1.32-1.44-1.64v-1.63c.8-.37,1.47-1.18,2.87-.94l.8,1.43Z"/><path class="cls-3" d="M355.32,263.48,353.79,262V260.1l2.14-1.08,1.52,2.26v.63C357,262.89,355.85,262.74,355.32,263.48Z"/><path class="cls-3" d="M368.24,276.4l-1.51-1.51v-1.83c.53-.58,1.42-.44,1.87-1.18.89.95,2,1.43,1.82,2.79S368.8,275.62,368.24,276.4Z"/><path class="cls-3" d="M383.36,296.23c-.6,1.23-1.75.89-2.05,1.8-.8-.81-1.91-1.31-1.6-2.87l1.63-1.52c1,.13,1.34,1.07,2,1.59Z"/><path class="cls-3" d="M392,312.51v1.18c-.44,1-1.58.84-2.14,1.56-.56-.76-1.71-1.13-1.49-2.73.16-.59,1.07-.94,1.51-1.66C391,311.09,391.36,312,392,312.51Z"/><path class="cls-3" d="M305.69,209c.06.86,0,1.57-1.35,2h-1.47c-.54-.49-1.12-.94-.84-1.87l1.83-1.86A6.34,6.34,0,0,1,305.69,209Z"/><path class="cls-3" d="M358.09,266.25v-1.84l1.82-1c.91.23,1.23,1.18,2,1.6l-.9,2.05h-2Z"/><path class="cls-3" d="M364.62,271.46h-1.24a1.83,1.83,0,0,1-.91-2.21l1.85-1.48c.73.07,1.08,1.06,1.78,1.56C366.11,270.16,366.29,271.05,364.62,271.46Z"/><path class="cls-3" d="M316,232.66a1.92,1.92,0,0,1-1-2.23l1.55-1.29c.6.46,1.68.5,2.16,1.58l-.95,1.94Z"/><path class="cls-3" d="M376.41,293.06a1.93,1.93,0,0,1-1-2.23l1.56-1.28c.6.44,1.66.5,2.16,1.57l-1,1.94Z"/><path class="cls-3" d="M298,204.31l1.2-1.19c.54.72,1.72.5,2.29,1.86.18.47-.94.86-.84,1.73h-2.1C297.93,206.16,297.27,205.61,298,204.31Z"/><path class="cls-3" d="M386.77,310.32h-1.85c-.58-.56-1.35-1-.61-2.48l1.27-1c.61.39,1.63.5,2.15,1.56Z"/><path class="cls-3" d="M396.33,325.61l-.86,1.9h-2c-.46-.51-1.24-.88-.49-2.26l1.4-1C394.66,324.64,395.85,324.42,396.33,325.61Z"/><path class="cls-3" d="M326.71,238.45c-.22.69.26,1,.55,1.33-.44.35-.74.73-.61,1.25-.71.49-1.44.17-2.11.26a1.91,1.91,0,0,1-.88-2.27l1.55-1.21Z"/><path class="cls-3" d="M319.26,234.82l1.51-1.5c.58.76,1.94.5,2.21,1.79-.24.84-1.05,1.29-1.65,1.88C319.51,236.62,319.51,236.62,319.26,234.82Z"/><path class="cls-3" d="M335,246.84c.62.29-.11,1.37,1.09,1.31l-1.69,1.8c-2-.34-2-.34-2.16-2.2l1.5-1.51C334.11,246.51,334.36,247.06,335,246.84Z"/><path class="cls-3" d="M310.64,226.18l1.51-1.46a3.44,3.44,0,0,1,2,2.23L312.72,228a1.07,1.07,0,0,1-1.46.08C310.55,227.58,310.6,226.92,310.64,226.18Z"/><path class="cls-3" d="M373.12,288.82c-2.42-.66-2.59-1.13-1.25-3.08.25,0,.54-.06.83-.07h1.14c.35.56.33,1.22.87,1.56Z"/><path class="cls-3" d="M367.58,281.41h2c.48.38,0,1.18.5,1.22l-1.58,1.75C366.4,284.05,366.13,283.41,367.58,281.41Z"/><path class="cls-3" d="M327.89,243.45l.85-.85h2c.38.44,0,1.16.73,1.26l-2,1.66C328.14,245.28,328.14,245.28,327.89,243.45Z"/><path class="cls-3" d="M380.52,303h2a10.33,10.33,0,0,0,.39,1.07c.09.18.28.3.16.17l-1.29,1.88C379.34,305.43,379.17,305,380.52,303Z"/><path class="cls-3" d="M390.19,323.32c-2.35-.82-2.46-1.21-1.05-3.06h2c.29.48.12,1.1.51,1.26Z"/><path class="cls-3" d="M307.3,221h1.8c.49.39.19,1.23.75,1.44l-2,1.7c-.42.1-1-.28-1.44-.9C306.1,222.37,306.33,221.68,307.3,221Z"/><path class="cls-3" d="M337.39,251.2h2c.42.69.14,1.4.22,2.07-1.48,1.21-1.87,1.28-2.67.46S336.34,252.61,337.39,251.2Z"/><path class="cls-3" d="M305.65,218.23l-1.39,1.4a1.79,1.79,0,0,1-2.26-.9c.26-1.86.26-1.87,2.18-2.1Z"/><path class="cls-3" d="M387.23,317.41,386,319.12a6,6,0,0,1-2.09-1.85c.22-1.11.9-1.51,2.23-1.37Z"/><path class="cls-3" d="M340.8,256.43l.88-.88h2.16v2.15c-.41.26-.56.87-1.43.84C341.94,257.93,340.87,257.6,340.8,256.43Z"/><path class="cls-3" d="M348.24,261.92l-.88,1c-1.26-.09-1.47-1.21-2.21-1.5a1.39,1.39,0,0,1,1.24-1.6C347.52,259.58,347.9,260,348.24,261.92Z"/><path class="cls-3" d="M355.7,271.68,353.79,270c-.07-1,.6-1.19,1-1.59,1-.07,1.79.15,2.06,1.24S356.39,271.06,355.7,271.68Z"/><path class="cls-3" d="M360.08,275.84l-2-1.55a1.5,1.5,0,0,1,1.08-1.53,1.44,1.44,0,0,1,1.81.71C361.57,274.6,361,275.31,360.08,275.84Z"/><path class="cls-3" d="M351.27,267.22l-1.82-1.84c1.3-1.55,1.87-1.7,2.72-.73C352.87,265.44,352.7,265.94,351.27,267.22Z"/><path class="cls-3" d="M362.24,278.4c1.42-1.52,1.94-1.69,2.72-1s.77,1.22-.48,2.68a1.07,1.07,0,0,1-.31,0C363.37,279.83,363,279.05,362.24,278.4Z"/><path class="cls-3" d="M377.3,302.13l-1.94-1.93c-.09-.94.58-1.16.95-1.59,1.88.24,1.89.24,2.09,1.91Z"/><path class="cls-3" d="M299.51,215.44l-1.83-1.83c1.3-1.55,1.87-1.7,2.72-.73C301.1,213.68,300.93,214.17,299.51,215.44Z"/><path class="cls-3" d="M295.36,208a1.66,1.66,0,0,1,1.1,2l-1,1.06c-1-.07-1.31-1-1.77-1.29Z"/><path class="cls-3" d="M316.79,241.88l-1.45-2.14,1.74-1.48c.72.13,1.05,1,1,1.78Z"/><path class="cls-3" d="M373,294.32a1.55,1.55,0,0,1,1,2.13l-.88.95c-1-.06-1.31-1-1.78-1.28Z"/><path class="cls-3" d="M379.67,313.17l1.57-1.68a1.73,1.73,0,0,1,1.5,2.15l-.86,1C380.74,314.6,380.46,313.68,379.67,313.17Z"/><path class="cls-3" d="M390.28,328.83a1.56,1.56,0,0,1,1,2.14l-.88.95c-1-.07-1.32-1-1.78-1.29Z"/><path class="cls-3" d="M321,246,319.72,244c-.08-.35.45-1,1.23-1.51C322.77,243.94,322.77,243.94,321,246Z"/><path class="cls-3" d="M308,229.55a1.88,1.88,0,0,1,1.44,1.19c-.11.87-1,1.16-1.33,1.66l-1.32-1.15Z"/><path class="cls-3" d="M323.8,248.5l1.23-1.62c1-.17,1.13.65,1.62.81.11,1.24-1.16,1.39-1.44,2.37Z"/><path class="cls-3" d="M314.31,235l-2.43,1.74-1.17-1.29,1.38-1.47C313.09,233.77,313.22,234.58,314.31,235Z"/><path class="cls-3" d="M290.44,206.73c-1-1.78-1-1.78.42-3,.69.06,1,.59,1.37,1.22A4.64,4.64,0,0,1,290.44,206.73Z"/><path class="cls-3" d="M385.35,327.54c-.94-1.78-.94-1.78.43-3,.68.06,1,.59,1.36,1.22A4.67,4.67,0,0,1,385.35,327.54Z"/><path class="cls-3" d="M303.81,225.26a1.81,1.81,0,0,1,1.29,1.17c-.05.95-1.12,1.1-1.6,2.58-.38-.75-.58-1.08-.72-1.44A1.56,1.56,0,0,1,303.81,225.26Z"/><path class="cls-3" d="M378.46,308.48a1.68,1.68,0,0,1-2.3,1.13c-.56-1.09-.1-1.82.87-2.37C377.85,307.23,378.19,307.79,378.46,308.48Z"/><path class="cls-3" d="M368.6,290.13l1.27.74a1.75,1.75,0,0,1-2.24,1.57C367.39,290.77,367.39,290.77,368.6,290.13Z"/><path class="cls-3" d="M298.44,223.31a1.69,1.69,0,0,1,1-2.37c.72.1,1,.61,1.34,1.14A1.67,1.67,0,0,1,298.44,223.31Z"/><path class="cls-3" d="M329.6,251.15c.85,0,.91.79,1.46.92-.38,1.3-1.08,1.79-2.34,1.47C328.11,252.42,328.6,251.67,329.6,251.15Z"/><path class="cls-3" d="M364,285.67l1.52,1.52c-.59.76-1.25,1.31-2.27.82C362.63,287,363.21,286.28,364,285.67Z"/><path class="cls-3" d="M359.63,281.36l1.52,1.52c-.59.76-1.25,1.31-2.27.82C358.31,282.63,358.9,282,359.63,281.36Z"/><path class="cls-3" d="M333.75,255.47l1.52,1.52c-.6.75-1.24,1.34-2.37.76v-1.44Z"/><path class="cls-3" d="M342.44,264.16l1.37,1.37c-.38,1-1.15,1.2-2.13,1C341.1,265.53,341.4,264.79,342.44,264.16Z"/><path class="cls-3" d="M339.5,261.42a1.8,1.8,0,0,1-2.09.8c-.73-1-.2-1.66.41-2.2Z"/><path class="cls-3" d="M294.05,218.92v-1.43c1-.61,1.65-.16,2.27.56C296.48,218.62,295.57,219,294.05,218.92Z"/><path class="cls-3" d="M371.65,305.39v-1.5c.52-.64,1-.52,2.49.59a5.62,5.62,0,0,1-1.12.88A4.23,4.23,0,0,1,371.65,305.39Z"/><path class="cls-3" d="M378.4,317.4a1.74,1.74,0,0,1-2.27.79c-.38-.39-.17-1,0-1.52A1.67,1.67,0,0,1,378.4,317.4Z"/><path class="cls-3" d="M289.78,213c1.05-.16,1.78,0,2.26.79-.35,1-1.15,1.13-2.07,1C289.33,214.17,289.83,213.56,289.78,213Z"/><path class="cls-3" d="M380.33,322.61V321c1-.6,1.67-.17,2.31.58C382.28,322.59,381.53,322.78,380.33,322.61Z"/><path class="cls-3" d="M389,339.72v-1.43c.95-.61,1.64-.16,2.27.56C391.39,339.42,390.48,339.78,389,339.72Z"/><path class="cls-3" d="M350,273.4h1.65l.87.86c-.6.71-1.24,1.3-2.26.82C349.88,274.66,350.18,274.13,350,273.4Z"/><path class="cls-3" d="M384.69,333.89a1.78,1.78,0,0,1,2.35.79c-.59.71-1.24,1.29-2.35.74Z"/><path class="cls-3" d="M354.45,279.32v-1.43c1-.61,1.65-.16,2.27.56C356.88,279,356,279.38,354.45,279.32Z"/><path class="cls-3" d="M315.85,247.46h1.24c.67.46.08,1.1.36,1.51-.55.55-1.09.23-1.58.34A1.37,1.37,0,0,1,315.85,247.46Z"/><path class="cls-3" d="M345.81,270.94v-1.66c.48-.46,1-.15,1.49-.25.65.47.08,1.1.34,1.51C347.09,271.08,346.55,270.77,345.81,270.94Z"/><path class="cls-3" d="M306.94,240.39v-1.24c.47-.6,1.07-.27,1.63-.23.43.42.1,1,.22,1.45A1.37,1.37,0,0,1,306.94,240.39Z"/><path class="cls-3" d="M311.3,245.05v-1.66c.48-.46,1-.14,1.48-.25.58.48.28,1.08.22,1.64C312.57,245.2,312,244.88,311.3,245.05Z"/><path class="cls-3" d="M368.34,299.2c.87.07,1,.67,1.27.82l-.62,1c-1,.13-1.13-.49-1.54-.76C367.54,299.76,368,299.55,368.34,299.2Z"/><path class="cls-3" d="M305.18,235.39c-.54.35-.71.94-1.28,1s-.79-.59-1.36-1l1.14-.9C304.46,234.37,304.57,235.19,305.18,235.39Z"/><path class="cls-3" d="M287.84,209.51l-.81.94c-1,.11-1.24-.53-1.62-.95l.88-.87C287.05,208.46,287.31,209.16,287.84,209.51Z"/><path class="cls-3" d="M298.31,231.11c.47-.33.69-1,1.46-.91.67.5.47,1.12.2,1.75C299.05,232.35,298.81,231.49,298.31,231.11Z"/><path class="cls-3" d="M319.87,252.7c.47-.32.67-1,1.47-.92.68.47.45,1.1.21,1.73C320.63,254,320.39,253,319.87,252.7Z"/><path class="cls-3" d="M382,331.23c-.94.21-1.23-.41-1.66-.79a1.44,1.44,0,0,1,1.45-1C382.46,330.06,382,330.67,382,331.23Z"/><path class="cls-3" d="M282.7,204.33c.55,1.06-.36,1.3-.73,1.87l-.82-1A1.48,1.48,0,0,1,282.7,204.33Z"/><path class="cls-3" d="M372.69,314l-1.08-.91c.57-.37.81-1.28,1.69-.82C373.93,313.16,373,313.42,372.69,314Z"/><path class="cls-3" d="M376.94,326.93l-1-.88c.54-.39.81-1.22,1.65-.87C378.23,326.09,377.34,326.37,376.94,326.93Z"/><path class="cls-3" d="M369,307.87c.5,1.09-.39,1.32-.74,1.85l-.84-.88A1.49,1.49,0,0,1,369,307.87Z"/><path class="cls-3" d="M289.69,222.47c.52-.45.8-1.06,1.55-.89.86,1-.25,1.28-.64,1.85Z"/><path class="cls-3" d="M294.36,226.56c.15-.1.38-1,1.27-.58.67.88-.3,1.14-.71,2Z"/><path class="cls-3" d="M330.14,260.39c.56,1.09-.35,1.33-.72,1.9l-.81-1A1.57,1.57,0,0,1,330.14,260.39Z"/><path class="cls-3" d="M364.67,294.93c.55,1.06-.36,1.3-.73,1.87l-.82-1A1.49,1.49,0,0,1,364.67,294.93Z"/><path class="cls-3" d="M324.41,256.86c.3-.2.53-1.1,1.43-.68.63.87-.26,1.15-.79,1.89Z"/><path class="cls-3" d="M358.92,291.37c.3-.2.54-1.1,1.43-.67.63.86-.26,1.15-.78,1.88Z"/><path class="cls-3" d="M386.44,343.3l-.9.9-.85-.79a1.82,1.82,0,0,1,.88-1Z"/><path class="cls-3" d="M286,218.79l-.62-.63,1-.83,1,.91Z"/><path class="cls-3" d="M334.37,266h-.61a.75.75,0,0,1-.24-1c.21-.37.55-.19.83-.24A.73.73,0,0,1,334.37,266Z"/><path class="cls-3" d="M290.34,231.52v-1.41a2,2,0,0,1,1.1,1.21Z"/><path class="cls-3" d="M338.83,270.21H338c-.35-.39-.34-.73.14-1.31Z"/><path class="cls-3" d="M282,212.76l.82,1.31C282,214.21,281.29,214.4,282,212.76Z"/><path class="cls-3" d="M373.35,322h-.85c-.34-.39-.33-.73.14-1.31Z"/><path class="cls-3" d="M381,338.3l.9.91-.63.11C380.75,338.87,380.81,338.46,381,338.3Z"/><path class="cls-3" d="M316.41,255.61l.54,1.51C316.31,257.28,316.31,257.28,316.41,255.61Z"/><path class="cls-3" d="M299.15,238.35l.54,1.52C299.05,240,299.05,240,299.15,238.35Z"/><path class="cls-3" d="M376.81,333.26l.54,1.52C376.71,334.94,376.71,334.94,376.81,333.26Z"/><path class="cls-3" d="M312.19,251.59l.82,1.31C312.23,253,311.49,253.23,312.19,251.59Z"/><path class="cls-3" d="M307.8,247.63l1.3.82C307.61,248.56,307.61,248.56,307.8,247.63Z"/><path class="cls-3" d="M351.47,283.15h-.53c-.36-.37-.34-.71.11-1.3Z"/><path class="cls-3" d="M355.06,287.6v-1.4a2,2,0,0,1,1.09,1.2Z"/></g><path class="cls-3" d="M383.36,289.37v-2.76c.73-.57,1.12-1.69,2.66-1.53.68.13,1,1.11,1.6,1.45.41,1.6-.91,2-1.45,2.84h-2.81v2.46l1.54,1.89c1.2-.1,2.23-.2,2.77,1V298h3.39l.86.86V301c-.63,1.81-1.87,1-2.79,1.34-.43.64-1.31.95-1.46,1.81-.27,1.34,1,1.64,1.53,2.43H392v-2.75c.73-.58,1.12-1.69,2.66-1.53.67.13,1,1.11,1.6,1.45.41,1.6-.91,2-1.45,2.83H392v2.46l1.53,1.9c1.21-.11,2.24-.21,2.78,1v3.23h3.33c.13-.83.26-1.66.37-2.5v-2.43c-.73-.09-.93,1.43-2.06.79l-1.64-2.41v-.54l1.51-1.49c.88-.36,1.48.29,2.19.57v-5.55c-.41.21-.82.44-1.25.61a2.07,2.07,0,0,1-.67,0l-1.78-1.81c-.14-.71.16-1.28,1-1.89H400v-6.16c-.5-.08-.6.53-.94.59a1.65,1.65,0,0,1-1.85-.59,1.46,1.46,0,0,1,0-1.85,1.64,1.64,0,0,1,1.85-.59c.34.05.44.67.94.59v-4c-.14-1.07-.3-2.13-.47-3.18-.41.28-.65.8-1.12,1l-1.49-1.5,1.49-1.49c.4.17.63.57.93.86-.42-2.43-.94-4.84-1.54-7.21l-.24-.09a1.49,1.49,0,0,1,0-.68,99.07,99.07,0,0,0-4.34-12.89l-.06-.05,0,0A100.14,100.14,0,0,0,318,201.15v1.12a6.77,6.77,0,0,1-2.7.16,1.79,1.79,0,0,1-1-1.85c-1.42-.19-2.86-.35-4.3-.48v2.06l-.95.94h-2.14c-1.67.73-1.15,1.84-1.19,2.73l1.49,1.56H310v-2.75c.81-.62,1.21-2,3-1.38l1.25,1.25c.45,1.65-.88,2.06-1.42,2.88H310v2.47c.61.75,1.11,1.36,1.53,1.89,1.21-.1,2.23-.21,2.78,1.05V216h3.39l.85.85v2.18c-.65,1.87-1.92,1-2.74,1.42-1,.35-.83,1.47-1.26,1.93.1,1.54,1.33,1.74,2.49,2.35l1.59-2a2.1,2.1,0,0,1,.81-2.28h2.67l.76.75v2.47c-.67,1.45-1.88.78-2.8,1.08-.43.64-1.32.94-1.51,2.07,1.06,0,.32,1.15.48,1.24,1.68.59,2.91,1.79,4-.37v-2.2c.33-.32.55-.54.76-.76h2.61l.79.79v2.16c-.6,1.79-1.8,1.15-2.41,1.66l-1.95,1.32,1,2c.88,0,1.5,1.06,2.56.62l.92-1v-2.42l.82-.82h2.59l.73.74v2.71l-.79.79h-1.32l-2.18,1.6c.37.8.65,1.41,1,2.17.81-.64.95.86,1.6.62l1.8-1.56c0-1.13-.25-2.12,1-2.75h2.5l.74.74v2.53c-.73,1.49-2,.66-2.7,1a4.53,4.53,0,0,0-1.38,2.24.94.94,0,0,1,.48,1.08l2,1c.63-.61,1.2-1.16,1.7-1.66,0-1-.25-2,.93-2.66h2.52l.86.84v3.4h3.41l.9,1v3.35h3.39l1,1v2.47l.86.85h2c1.88.69,1.33,1.85,1.43,2.82.51.5,1,1,1.62,1.62h2.68v2.44l1.38,1.63c1.13.37,2.07-.12,3,.42v2c.72,1.05,1.11,1.64,1.43,2.12H366v2.57l1.6,1.67h2.79V265c.73-.57,1.12-1.69,2.66-1.53.67.13,1,1.11,1.6,1.45.41,1.6-.91,2-1.45,2.83h-2.81v2.78l1.54,1.52c.93.12,2.07-.33,2.79,1.15v2c.92,1.77,2.34.86,3.4,1.2l.9.86v3.4h3.39l.85.86v2.18c-.63,1.82-1.87,1-2.79,1.34-.43.65-1.31.95-1.54,2,.88.44.62,1.74,1.67,2.22Zm-54.78-85.06H330c.6.47.28,1.08.24,1.64-.43.43-1,.1-1.44.21C328.13,205.55,328.69,204.93,328.58,204.31Zm-3.46,3.7a1.52,1.52,0,0,1,1.54,1.47,1.54,1.54,0,0,1-1.39,1.61,1.54,1.54,0,1,1-.15-3.08Zm-5.86-3.35c.51-.65,1.1-1.26,2-.94a1.61,1.61,0,0,1,1,2.24l-.77.77h-2C319.07,206,319.34,205.32,319.26,204.66ZM316,211.84c-.62-.91-1.83-1.25-1.57-2.84.24-.57,1-1.07,1.57-1.59,1.45-.27,1.95.87,2.71,1.6C318.74,210.75,317.67,211.42,316,211.84Zm5.4,4.2c-1.74.09-2.4-1-2.84-2.69.9-.65,1.26-1.82,2.8-1.6.62.22,1.09,1,1.63,1.57C323.23,214.77,322.07,215.26,321.35,216Zm4.31,4.28c-1.45.27-2-.87-2.71-1.6-.08-1.74,1-2.41,2.7-2.83.62.91,1.83,1.25,1.57,2.84C327,219.3,326.26,219.8,325.66,220.32Zm5.25,3.44a1.88,1.88,0,0,1-2.19.82c-.32-.41-.81-1-1.56-2-.25-.94,1-1.45,1.61-2.21a1.74,1.74,0,0,1,2.14,1Zm-1.17-8.36c-.94.2-1.49-.34-1.92-1.28l1.56-1.78c1-.07,1.19.6,1.59,1C331.05,214.32,330.83,215.16,329.74,215.4ZM363,239.11l1-.92,1.2,1.54-1.32,1.48A1.86,1.86,0,0,1,363,239.11Zm-.56,8.63c.59-.83,1.33-1.2,2.15-.81,1.16.56.83,1.71.86,2.69-1.5,1.25-1.5,1.24-3,.06Zm-3.67-13c1-.79,1.69-.08,2.36.7l-.85.85H358.8Zm-.65,8.64c1.46-1.11,1.46-1.11,2.94,0a4.84,4.84,0,0,1,0,2.15h-2.91Zm-3.65-13c.43-.4.95-.1,1.53-.23a1.84,1.84,0,0,1-.71,2.49C354.61,232.06,354,231.42,354.5,230.4Zm-.66,8.67c1.39-1,1.81-1.11,2.51-.45,1,.94.63,1.74-.44,2.67h-1.86C353.55,240.59,353.82,239.81,353.84,239.07Zm-2.28-13.26c.57.61.26,1.13.37,1.62a1.4,1.4,0,0,1-1.87,0C350.05,226.47,350.68,226.11,351.56,225.81Zm-.63,8.09a1.53,1.53,0,0,1,1.61,1.38,1.5,1.5,0,0,1-1.61,1.7,1.54,1.54,0,0,1,0-3.08Zm-3.71-12.47c.57.71.31,1.22.38,1.69-.48.62-1.1.07-1.77.49C345.64,222.22,346.33,221.84,347.22,221.43Zm-.37,8c1,.46,1.57,1,1.37,2-.24,1.09-1.08,1.31-2.14,1.23l-1-.9C345.3,230.62,346.17,230.2,346.85,229.48Zm-4-12.23c.89.31.25,1.05.46,1.56a1.46,1.46,0,0,1-2-.07C341.67,217.8,342,217.26,342.85,217.25Zm-.42,8a1.34,1.34,0,0,1,1.47,1.23c.22,1.14-.23,1.51-2.14,1.87l-1-.93C341,226.3,341.86,225.9,342.43,225.27Zm-5.24-12.08c.48-.45,1-.15,1.49-.25.63.48.08,1.11.33,1.53-.56.52-1.09.22-1.82.38ZM338,221c.94-.1,1.16.58,1.59.95-.29,1.83-.29,1.83-1.92,2.09l-1.6-1.11C337,222,337.55,221.43,338,221Zm-5.19-12c.49-.55,1.08-.28,1.66-.2.44.43,0,1,.4,1.69h-1.81C332.62,209.94,332.92,209.41,332.82,208.93Zm1.29,7.51c1.42,1.66,1.5,2.09.65,2.88s-1.3.57-2.63-.86A7,7,0,0,1,334.11,216.44Zm.18,12.52c-1.43.36-1.89-.89-2.7-1.55-.14-1.74.85-2.49,2.31-2.81,1.78,1.21,1.76,1.23,2,2.82Zm3.46,4.69c-.77-1-1.95-1.38-1.82-3.11.11-.66,1.17-.86,1.45-1.53,1.59-.31,2.08.85,2.86,1.58C340.2,232.51,339,232.89,337.75,233.65Zm5.16,4a2.66,2.66,0,0,1-2.76-2.64c.68-.84,1.24-1.92,3-1.71l1.53,2.07C344.86,236.33,343.63,236.8,342.91,237.66Zm5.89,2.6c-.21.62-1,1.09-1.57,1.63-1.45.29-1.94-.87-2.71-1.59-.09-1.74,1-2.4,2.68-2.85C347.85,238.36,349,238.72,348.8,240.26Zm1.58,6-1.48-1.44c-.35-1.6.84-2.08,1.55-2.88,1.75-.12,2.34,1,2.93,2.39C352.54,245.34,352,246.42,350.38,246.21Zm5.6,4.32h-1.91l-.89-.89v-1.85c.75-.66,1.21-1.87,2.92-1.44l1.35,1.43C357.84,249.3,356.51,249.71,356,250.53Zm4.35,4.27H358.5c-1.26-.6-1-1.57-1-2.71.7-.5,1-1.75,2.8-1.52.5.74,1.73,1.08,1.52,2.37C361.66,253.82,360.78,254.12,360.33,254.8Zm4.31,4.3h-2l-.85-.86v-1.85c.76-.54,1.12-1.73,2.74-1.48l1.19,2C366.39,257.82,365.33,258.3,364.64,259.1Zm3.68-24.68.55,1.33-.63.63-.84-1Zm1.49,9.63-1.43,1.44L367.13,244C368.13,242.77,368.14,242.77,369.81,244.05Zm-3.05,7.25c1.1-.2,2.16-.47,3,.75V254l-.86.87c-.81,0-1.68.18-2.12-1.44Zm2.14,12.17c-1,0-2.07.32-2.75-1v-1.9l1.56-1.44c1.44-.35,1.91.88,2.64,1.5C370.66,262.33,369.44,262.69,368.9,263.47Zm3.67-24.64.91.9c-.26.28-.53.56-.79.85a1.82,1.82,0,0,1-1-.88Zm.09,8.1,1.3,1.3-1.68,1.4L371,248.36Zm-1.57,11.32v-1.9c.93-1.08,1.84-1.33,2.81-.17.49.64,0,1.39.26,2C372.93,259.59,372,259.42,371.09,258.25Zm25.22,37c.14,1.76-1,2.38-2.51,2.83-.93-.74-2-1.3-1.79-2.9l1.51-1.56C395,294,395,294,396.31,295.28Zm-1.47-6.62h-2.19v-2.12c1.41-1.05,1.83-1.12,2.53-.46C396.16,287,395.81,287.82,394.84,288.66ZM394.75,269c.7.61.14,1.23.24,1.85h-1.44c-.68-.46-.08-1.1-.36-1.51C393.74,268.81,394.27,269.14,394.75,269Zm-.88,8.28,1.84,1.26c-.07.95-.63,1.21-1.11,1.57-1-.08-1.24-1.14-2-1.49Zm-3.48,16.37c-1.76.15-2.38-1-2.83-2.5.74-.93,1.3-2,2.9-1.8l1.55,1.51C391.75,292.41,391.77,292.43,390.39,293.68Zm.16-37.5c.63.87-.26,1.15-.78,1.89-.24-.45-.45-.85-.65-1.21C389.43,256.66,389.66,255.76,390.55,256.18Zm-.62,7.91c.27.55.58,1.16,1,2l-1.07,1.14-.89-.89A1.87,1.87,0,0,1,389.93,264.09Zm-.1,8.64a1.5,1.5,0,0,1,1.54,1.46,1.53,1.53,0,0,1-1.38,1.62,1.54,1.54,0,1,1-.16-3.08Zm-.75,8.69h2.18v2.8a1.77,1.77,0,0,1-2.13.71,6.28,6.28,0,0,1-1.45-1.52C387.64,282.56,387.63,281.83,389.08,281.42Zm-3.58-29.56a1.5,1.5,0,0,1,.93,1.55c-1.1.59-1.28-.42-1.93-.66Zm-.07,8.26c.41.36,1,.84,1.5,1.33l-1.42,1.42L384,261.26Zm.78,11.28H384v-2.12c1.41-1,1.83-1.12,2.53-.46C387.53,269.76,387.18,270.56,386.21,271.4Zm-1.24,5c1.43-.36,1.9.89,2.71,1.55.13,1.74-.86,2.48-2.61,2.88-.82-.88-2-1.37-1.67-3Zm-3.05-28.88c.64.87-.26,1.16-.78,1.89-.24-.45-.45-.85-.65-1.21C380.8,248,381,247.13,381.92,247.55Zm-.71,7.91,1.52,1.62c-.49.38-1,.79-1.44,1.13-.41-.36-1-.84-1.5-1.33Zm-1.55,9.62c1.46-1.22,1.86-1.29,2.66-.48s.61,1.1-.44,2.53h-2C379.44,266.46,379.75,265.75,379.66,265.08Zm-2.26-21.94c1,.47,0,1.18.47,1.64-1.16.51-1.4-.35-1.9-.72C376.44,243.73,376.65,243,377.4,243.14Zm-.64,8.52,1.35,1.35-1.25,1.25-1.38-1.69Zm-1.3,8.19h2.11l.65.65c.47.64,0,1.37.4,2.31h-3.16Zm.92,12.22c-.62-.22-1.09-1-1.63-1.58-.29-1.45.87-1.94,1.59-2.71,1.75-.09,2.4,1,2.85,2.69C378.28,271.11,377.92,272.29,376.38,272.07Zm5.38,4.37c-1.75.12-2.35-1-2.93-2.38.84-1.07,1.4-2.15,3-1.93l1.48,1.43C383.66,275.17,382.47,275.65,381.76,276.44Z"/></g></g></g></svg>