<svg id="Layer_1" data-name="Layer 1" xmlns="http://www.w3.org/2000/svg" viewBox="0 0 595.09 559.5"><defs><style>.cls-1,.cls-2,.cls-3{fill:none;stroke-miterlimit:10;}.cls-1{stroke:#dd6656;}.cls-2{stroke:#ddb142;}.cls-3{stroke:#283583;}.cls-4{fill:#ddb142;}.cls-5{fill:#dd6656;}.cls-6{fill:#283583;}</style></defs><title>DB_Vrenn_diagram</title><ellipse class="cls-1" cx="297.55" cy="204.62" rx="210.2" ry="204.12"/><ellipse class="cls-2" cx="210.7" cy="333.38" rx="210.2" ry="204.12"/><ellipse class="cls-3" cx="384.39" cy="333.38" rx="210.2" ry="204.12"/><path class="cls-1" d="M600,128" transform="translate(-2.26 -31.05)"/><text x="-2.26" y="-31.05"></text><path class="cls-4" d="M32,487.34,24.7,489l-.87-1.28,2.26-3.42-4,.86-.88-1.28,4.17-6.25,1.4,2.06-2.18,3,3.67-.85.88,1.29L27,486.26l3.59-1Z" transform="translate(-2.26 -31.05)"/><path class="cls-4" d="M32.45,498.68c-.34-.2-.63-.4-.89-.58a4.47,4.47,0,0,1-.77-.79,1.05,1.05,0,0,1-.15-1.4,3.67,3.67,0,0,1-.95-.37,3.17,3.17,0,0,1-1-.88,2.47,2.47,0,0,1-.54-1.13,1.54,1.54,0,0,1,.12-.92,2,2,0,0,1,.54-.66,1.69,1.69,0,0,1,1-.39,2.39,2.39,0,0,1,1.07.27,11.63,11.63,0,0,1,1.33.8l.67.47a4.09,4.09,0,0,0,.35.22,1.59,1.59,0,0,0,.26.14,1.26,1.26,0,0,0,.5-.64c.07-.23,0-.52-.31-.88a3.2,3.2,0,0,0-1.2-1,5.41,5.41,0,0,0-1.5-.44l1.49-1.15a5,5,0,0,1,1,.45,6.69,6.69,0,0,1,.92.69,7.3,7.3,0,0,1,.8.87,3.68,3.68,0,0,1,.93,2.16,1.87,1.87,0,0,1-.8,1.58l-2.13,1.65a1.73,1.73,0,0,0-.41.41.26.26,0,0,0,0,.32,1.5,1.5,0,0,0,.54.38Zm-1.05-3.53,1.31-1a7.81,7.81,0,0,0-1.29-.62.92.92,0,0,0-.86.16.66.66,0,0,0-.29.48.67.67,0,0,0,.14.49,1,1,0,0,0,.42.31A5.43,5.43,0,0,0,31.4,495.15Z" transform="translate(-2.26 -31.05)"/><path class="cls-4" d="M43.88,501.93l-10.76,3L31.5,503l4.34-1.2,2.8-6,1.72,2-1.7,3.32,3.67-1Z" transform="translate(-2.26 -31.05)"/><path class="cls-4" d="M45.41,510.78a2,2,0,0,1-1.61.55,3.15,3.15,0,0,1-1.86-1.11,6.07,6.07,0,0,1-.84-1.1,10.07,10.07,0,0,1-.61-1.23l1.28-1.19a8.51,8.51,0,0,0,.35,1.15,2.42,2.42,0,0,0,.55.86c.42.45.75.56,1,.33a.42.42,0,0,0,.13-.31,2.08,2.08,0,0,0-.1-.54c-.07-.24-.17-.55-.31-.92a3.44,3.44,0,0,1-.21-1.4,1.76,1.76,0,0,1,.58-1.2,1.84,1.84,0,0,1,.94-.45,2.37,2.37,0,0,1,1.23.17,3.53,3.53,0,0,1,1.28.92c.1.11.22.25.36.43a5.51,5.51,0,0,1,.47.73,5.09,5.09,0,0,1,.4,1l-1.24,1.17q-.06-.25-.09-.42c0-.11-.07-.25-.13-.42a2.94,2.94,0,0,0-.25-.56,2.67,2.67,0,0,0-.4-.55.79.79,0,0,0-.52-.31.44.44,0,0,0-.35.11.43.43,0,0,0-.12.33,3.21,3.21,0,0,0,.24.79A6.42,6.42,0,0,1,46,509a2,2,0,0,1,0,1A1.87,1.87,0,0,1,45.41,510.78Z" transform="translate(-2.26 -31.05)"/><path class="cls-4" d="M58.14,521a3.66,3.66,0,0,1-1.58,1,3.13,3.13,0,0,1-1.87,0A4.69,4.69,0,0,1,52.76,521a4.77,4.77,0,0,1-1.29-1.84,3.27,3.27,0,0,1-.12-1.85,3.82,3.82,0,0,1,.93-1.67,4.06,4.06,0,0,1,1.15-.88,3.18,3.18,0,0,1,1.33-.32,3.43,3.43,0,0,1,1.44.29,5,5,0,0,1,1.45,1A5,5,0,0,1,58.74,517a3.29,3.29,0,0,1,.41,1.4,3.23,3.23,0,0,1-.22,1.34A3.84,3.84,0,0,1,58.14,521Zm-1.9-1.76a2,2,0,0,0,.61-1.19,1.38,1.38,0,0,0-1.52-1.41,2.5,2.5,0,0,0-1.76,1.91A1.36,1.36,0,0,0,55.09,520,2.09,2.09,0,0,0,56.24,519.24Z" transform="translate(-2.26 -31.05)"/><path class="cls-4" d="M66.54,522.61a4.08,4.08,0,0,0-.61-.69.76.76,0,0,0-.64-.2,1.09,1.09,0,0,0-.65.42l-.16.19,1,.8-1.08,1.27-.95-.81-3.19,3.76-1.88-1.6L61.52,522l-.86-.74L61.74,520l.86.74.08-.1a3.49,3.49,0,0,1,1.12-.87,2.31,2.31,0,0,1,1.41-.2,3.19,3.19,0,0,1,1.61.81,5.67,5.67,0,0,1,.86.9Z" transform="translate(-2.26 -31.05)"/><path class="cls-4" d="M81,534.63l-6.34,4-1.25-.92,1-4L71,535.87,69.71,535l1.84-7.28,2,1.48-1.06,3.58,3.18-2,1.26.92-1,3.65,3.07-2.11Z" transform="translate(-2.26 -31.05)"/><path class="cls-4" d="M87.26,542.88a3.77,3.77,0,0,1-1.4,1.3,3.14,3.14,0,0,1-1.83.33,4.6,4.6,0,0,1-2.09-.81,4.5,4.5,0,0,1-1.57-1.6,3.12,3.12,0,0,1-.42-1.81,3.74,3.74,0,0,1,.64-1.79,3.92,3.92,0,0,1,1-1.06,3.08,3.08,0,0,1,1.26-.53,3.3,3.3,0,0,1,1.46.05,5.07,5.07,0,0,1,1.59.72,5.21,5.21,0,0,1,1.3,1.19,3.18,3.18,0,0,1,.63,2.67A3.82,3.82,0,0,1,87.26,542.88Zm-2.17-1.42a2.11,2.11,0,0,0,.42-1.28,1.26,1.26,0,0,0-.62-1,1.24,1.24,0,0,0-1.12-.17,2.07,2.07,0,0,0-1,.88,2.09,2.09,0,0,0-.41,1.28,1.18,1.18,0,0,0,.6,1,1.23,1.23,0,0,0,1.13.18A2.15,2.15,0,0,0,85.09,541.46Z" transform="translate(-2.26 -31.05)"/><path class="cls-4" d="M96.28,544.74l-2,1.64a1.69,1.69,0,0,0-.7-1,1.27,1.27,0,0,0-1-.16,3.35,3.35,0,0,0-1.3.74l-1.54,2.56-2.11-1.27,3.6-6,2.1,1.27L92.46,544a3.48,3.48,0,0,1,1.33-.61,1.84,1.84,0,0,1,1.49.21,1.79,1.79,0,0,1,.56.48A4.81,4.81,0,0,1,96.28,544.74Z" transform="translate(-2.26 -31.05)"/><path class="cls-4" d="M101.8,555.37l-2.73-1.52-.74-4.18-1.6,2.89-2.18-1.21,4.59-8.28,2.18,1.2-2.69,4.86,3.61-1.47,2.58,1.43-3.95,1.52Z" transform="translate(-2.26 -31.05)"/><path class="cls-4" d="M106,557.5l-2.19-1.13,3.17-6.19,2.2,1.13Zm3.73-7.71a1,1,0,0,1-.6.51,1,1,0,0,1-.79-.07.93.93,0,0,1-.4-.36,1,1,0,0,1-.05-1,1,1,0,0,1,.6-.51,1,1,0,0,1,1.31.67A1,1,0,0,1,109.72,549.79Z" transform="translate(-2.26 -31.05)"/><path class="cls-4" d="M115.4,562.05l-2.22-1,1.6-3.4a2.35,2.35,0,0,0,.26-1,.8.8,0,0,0-.56-.74,1.18,1.18,0,0,0-.53-.13,2,2,0,0,0-.49.09L113,556l-.38.21-1.75,3.69-2.22-1,3-6.29,2.23,1-.43.9a3.83,3.83,0,0,1,1.43-.29,3.26,3.26,0,0,1,1.28.34q2.27,1.06,1,3.77Z" transform="translate(-2.26 -31.05)"/><path class="cls-4" d="M126.54,560.89l-1.12-.47a1.71,1.71,0,0,1,0,1.51,1.94,1.94,0,0,1-.49.69,2,2,0,0,1-.77.44,2.59,2.59,0,0,1-1,.12,4.16,4.16,0,0,1-1.18-.25q-.8-.3-1,.09a.27.27,0,0,0,0,.26.77.77,0,0,0,.28.24,6.34,6.34,0,0,0,.7.39,8.77,8.77,0,0,1,1,.64,2.4,2.4,0,0,1,.71.93,1.66,1.66,0,0,1-.06,1.34,2,2,0,0,1-.77.92,2.35,2.35,0,0,1-1.36.27,6.54,6.54,0,0,1-2-.56,5.73,5.73,0,0,1-2.31-1.53,1.49,1.49,0,0,1-.28-1.57,1.55,1.55,0,0,1,.31-.44,1.28,1.28,0,0,1,.66-.33,2.24,2.24,0,0,1,1.12.08.85.85,0,0,1-.25-.49,1,1,0,0,1,0-.56,1.26,1.26,0,0,1,.52-.56,1.17,1.17,0,0,1,.92-.1,2.91,2.91,0,0,1-.93-1.24,2,2,0,0,1,0-1.58,2.58,2.58,0,0,1,.71-1,2.29,2.29,0,0,1,1-.49,3.58,3.58,0,0,1,1.18,0,5.79,5.79,0,0,1,1.3.39l3.51,1.5Zm-4.71,5.36a.58.58,0,0,0-.22-.74,3.79,3.79,0,0,0-.87-.52,3.16,3.16,0,0,0-1.21-.31.59.59,0,0,0-.57.38c-.21.48.17.92,1.14,1.33a2.59,2.59,0,0,0,1.11.26A.66.66,0,0,0,121.83,566.25Zm1.75-5.34a1.13,1.13,0,0,0,0-.92,1.19,1.19,0,0,0-.62-.61,1.1,1.1,0,0,0-1,0,1.22,1.22,0,0,0-.61.62,1.05,1.05,0,0,0-.09.55,1,1,0,0,0,.21.53,1.11,1.11,0,0,0,.5.39,1.19,1.19,0,0,0,.94,0A1.1,1.1,0,0,0,123.58,560.91Z" transform="translate(-2.26 -31.05)"/><path class="cls-5" d="M113.55,111.39l3.87,6.59-1,1.49L108.9,118l1.52-2.16,3.81.91-2.06-3.4Z" transform="translate(-2.26 -31.05)"/><path class="cls-5" d="M124.65,107.75c-.11.37-.23.71-.34,1a4.11,4.11,0,0,1-.57,1,1.31,1.31,0,0,1-.69.54,1.19,1.19,0,0,1-.62,0,3.56,3.56,0,0,1-.12,1,3.25,3.25,0,0,1-.61,1.13,2.5,2.5,0,0,1-1,.81,1.53,1.53,0,0,1-.92.12,1.87,1.87,0,0,1-.77-.35,1.73,1.73,0,0,1-.64-.91,2.43,2.43,0,0,1,0-1.11,10.48,10.48,0,0,1,.45-1.49l.27-.76.14-.4c0-.08,0-.18.07-.29a1.41,1.41,0,0,0-.76-.32c-.23,0-.49.17-.77.53a3.28,3.28,0,0,0-.63,1.4,5.09,5.09,0,0,0,0,1.56l-1.5-1.15a4.29,4.29,0,0,1,.18-1.11,6.14,6.14,0,0,1,.43-1.07,8.07,8.07,0,0,1,.64-1,3.72,3.72,0,0,1,1.85-1.44,1.89,1.89,0,0,1,1.74.38l2.13,1.64a2,2,0,0,0,.49.29.26.26,0,0,0,.31-.1,1.49,1.49,0,0,0,.23-.62Zm-3.15,1.9-1.31-1a6.9,6.9,0,0,0-.27,1.4.92.92,0,0,0,.36.79.66.66,0,0,0,1-.09,1.13,1.13,0,0,0,.2-.49A5.68,5.68,0,0,0,121.5,109.65Z" transform="translate(-2.26 -31.05)"/><path class="cls-5" d="M127.91,104.36l-1.57,1.9-7.31-6,1.57-1.9Z" transform="translate(-2.26 -31.05)"/><path class="cls-5" d="M134.69,96.58l-1.64,1.84-.74-.66a3.57,3.57,0,0,1-.1,1.37,3.12,3.12,0,0,1-.7,1.22c-.7.78-1.38,1.09-2,.91a4.56,4.56,0,0,1-1.85-1l-3.06-2.72,1.63-1.84,2.82,2.5a2.54,2.54,0,0,0,.86.52.82.82,0,0,0,.87-.33,1.18,1.18,0,0,0,.34-.84,6.14,6.14,0,0,0-.16-1l-3.06-2.71L129.49,92Z" transform="translate(-2.26 -31.05)"/><path class="cls-5" d="M139.55,87.34l-3.41,3.52a1.69,1.69,0,0,0,1.23.22,2.11,2.11,0,0,0,1.18-.63A6.59,6.59,0,0,0,140,88l1.1,1.06a7.82,7.82,0,0,1-.55,1.3,7.26,7.26,0,0,1-1.2,1.56,4.6,4.6,0,0,1-1.87,1.24,3.15,3.15,0,0,1-1.87.06,3.82,3.82,0,0,1-1.65-1,3.66,3.66,0,0,1-1-1.59,3.11,3.11,0,0,1,0-1.86,4.78,4.78,0,0,1,1.19-1.89,3.83,3.83,0,0,1,1.41-.92,3,3,0,0,1,1.76-.1A4.14,4.14,0,0,1,139.2,87Zm-2.48.81a1.57,1.57,0,0,0-1-.5,1.15,1.15,0,0,0-.95.4,1.33,1.33,0,0,0-.4,1,1.46,1.46,0,0,0,.5,1Z" transform="translate(-2.26 -31.05)"/><path class="cls-5" d="M146,82.38a2,2,0,0,1,.57,1.61,3.18,3.18,0,0,1-1.1,1.87,6.44,6.44,0,0,1-1.1.84,10.65,10.65,0,0,1-1.22.61L141.92,86a8.71,8.71,0,0,0,1.16-.35,2.63,2.63,0,0,0,.85-.55c.45-.43.56-.76.32-1A.42.42,0,0,0,144,84a1.7,1.7,0,0,0-.54.11,9.51,9.51,0,0,0-.92.32,3.82,3.82,0,0,1-1.4.21,1.79,1.79,0,0,1-1.2-.57,1.81,1.81,0,0,1-.46-.94,2.36,2.36,0,0,1,.16-1.23,3.64,3.64,0,0,1,.92-1.29c.1-.1.25-.22.42-.36a5.09,5.09,0,0,1,.74-.47,4.09,4.09,0,0,1,1-.41l1.17,1.24-.41.09a2.8,2.8,0,0,0-.43.13,3.67,3.67,0,0,0-.55.25,2.71,2.71,0,0,0-.55.41.75.75,0,0,0-.31.52.5.5,0,0,0,.11.34.39.39,0,0,0,.34.12,2.39,2.39,0,0,0,.78-.24,6.52,6.52,0,0,1,1.4-.43,2.1,2.1,0,0,1,1,0A2,2,0,0,1,146,82.38Z" transform="translate(-2.26 -31.05)"/><path class="cls-6" d="M505.79,546.64l.44,2.59a1.67,1.67,0,0,0-1.25.11,1.25,1.25,0,0,0-.6.75,3.23,3.23,0,0,0,0,1.49l1.49,2.6-2.13,1.22-3.48-6,2.14-1.22.84,1.45a3.39,3.39,0,0,1,.1-1.46,1.85,1.85,0,0,1,.9-1.2,2.07,2.07,0,0,1,.7-.26A6.37,6.37,0,0,1,505.79,546.64Z" transform="translate(-2.26 -31.05)"/><path class="cls-6" d="M515.12,545.12,511,547.75a1.74,1.74,0,0,0,1.15.5,2.07,2.07,0,0,0,1.29-.35,6.59,6.59,0,0,0,2-2.06l.82,1.28a7.9,7.9,0,0,1-.83,1.14,6.92,6.92,0,0,1-1.53,1.24,4.69,4.69,0,0,1-2.1.78,3.25,3.25,0,0,1-1.84-.37,3.73,3.73,0,0,1-1.38-1.33,3.69,3.69,0,0,1-.61-1.79,3.1,3.1,0,0,1,.46-1.79,4.68,4.68,0,0,1,1.59-1.57,4,4,0,0,1,1.58-.57,3,3,0,0,1,1.74.31,4,4,0,0,1,1.58,1.53Zm-2.61.21a1.61,1.61,0,0,0-.85-.72,1.16,1.16,0,0,0-1,.17,1.3,1.3,0,0,0-.62.88,1.5,1.5,0,0,0,.25,1.1Z" transform="translate(-2.26 -31.05)"/><path class="cls-6" d="M522.33,541.1a2,2,0,0,1,.33,1.68,3.12,3.12,0,0,1-1.36,1.69,6.79,6.79,0,0,1-1.2.68,11.65,11.65,0,0,1-1.3.43l-1-1.43A9,9,0,0,0,519,544a2.58,2.58,0,0,0,.93-.42c.5-.36.66-.67.46-.95a.43.43,0,0,0-.28-.17,1.84,1.84,0,0,0-.56,0c-.24,0-.56.1-.95.19a3.53,3.53,0,0,1-1.41,0,1.75,1.75,0,0,1-1.11-.73,1.8,1.8,0,0,1-.32-1,2.35,2.35,0,0,1,.33-1.2,3.68,3.68,0,0,1,1.1-1.14c.12-.09.27-.18.47-.3a6.22,6.22,0,0,1,.79-.36,4.58,4.58,0,0,1,1-.27l1,1.39-.43,0a2.9,2.9,0,0,0-.43.06,4.76,4.76,0,0,0-.59.18,2.89,2.89,0,0,0-.6.32.78.78,0,0,0-.38.47.47.47,0,0,0,.06.36.4.4,0,0,0,.32.16,2.53,2.53,0,0,0,.8-.12,6.4,6.4,0,0,1,1.45-.23,2,2,0,0,1,1,.19A1.94,1.94,0,0,1,522.33,541.1Z" transform="translate(-2.26 -31.05)"/><path class="cls-6" d="M529.85,533.49a3.78,3.78,0,0,1,.78,1.74,3.14,3.14,0,0,1-.27,1.84,5.37,5.37,0,0,1-3.45,2.7,3.2,3.2,0,0,1-1.85-.18,3.82,3.82,0,0,1-1.5-1.18,4,4,0,0,1-.68-1.28,3.32,3.32,0,0,1-.11-1.37,3.55,3.55,0,0,1,.52-1.37,5.07,5.07,0,0,1,1.2-1.27,4.94,4.94,0,0,1,1.53-.86,3.39,3.39,0,0,1,1.45-.18,3.15,3.15,0,0,1,1.29.44A4,4,0,0,1,529.85,533.49Zm-2.05,1.6a2,2,0,0,0-1.08-.8,1.23,1.23,0,0,0-1.11.27,1.22,1.22,0,0,0-.52,1,2,2,0,0,0,.51,1.24,2.1,2.1,0,0,0,1.09.8,1.37,1.37,0,0,0,1.64-1.28A2.14,2.14,0,0,0,527.8,535.09Z" transform="translate(-2.26 -31.05)"/><path class="cls-6" d="M539.83,529.51,538,531.13l-.65-.75a3.72,3.72,0,0,1-.28,1.35,3.06,3.06,0,0,1-.85,1.11,2,2,0,0,1-2.14.64,4.48,4.48,0,0,1-1.71-1.26l-2.69-3.08,1.86-1.61,2.47,2.83a2.39,2.39,0,0,0,.79.63.8.8,0,0,0,.9-.22,1.2,1.2,0,0,0,.45-.79,6,6,0,0,0,0-1l-2.69-3.08,1.86-1.62Z" transform="translate(-2.26 -31.05)"/><path class="cls-6" d="M542.1,518.31l1,2.42a1.67,1.67,0,0,0-1.19.39,1.28,1.28,0,0,0-.41.88,3.47,3.47,0,0,0,.38,1.44l2.06,2.17-1.78,1.7-4.8-5,1.78-1.7,1.16,1.22a3.4,3.4,0,0,1-.25-1.44,1.88,1.88,0,0,1,.6-1.38,1.91,1.91,0,0,1,.61-.42A6.45,6.45,0,0,1,542.1,518.31Z" transform="translate(-2.26 -31.05)"/><path class="cls-6" d="M551.85,517.29c-.09.2-.19.41-.3.62a5.11,5.11,0,0,1-.42.66,6.35,6.35,0,0,1-.6.72,4.32,4.32,0,0,1-1.62,1.11,3.2,3.2,0,0,1-1.55.2,3.58,3.58,0,0,1-1.27-.41,4,4,0,0,1-.88-.63,3.78,3.78,0,0,1-.65-.87,3.45,3.45,0,0,1-.44-1.24,3.16,3.16,0,0,1,.16-1.52,4.41,4.41,0,0,1,1.08-1.66,5.82,5.82,0,0,1,1-.83,7.6,7.6,0,0,1,.89-.5l1.39,1.35a6.21,6.21,0,0,0-1.58,1.08,1.82,1.82,0,0,0-.53,1.11,1.44,1.44,0,0,0,.53,1.22,1.56,1.56,0,0,0,.84.47,1.53,1.53,0,0,0,.85-.07,1.93,1.93,0,0,0,.67-.43,4.45,4.45,0,0,0,.51-.68c.16-.28.36-.63.57-1Z" transform="translate(-2.26 -31.05)"/><path class="cls-6" d="M556.63,508.18l-3.26,3.66a1.71,1.71,0,0,0,1.24.17,2.17,2.17,0,0,0,1.15-.68,6.65,6.65,0,0,0,1.31-2.52l1.13,1a7.21,7.21,0,0,1-.49,1.31,6.57,6.57,0,0,1-1.13,1.62,4.61,4.61,0,0,1-1.81,1.31,3.11,3.11,0,0,1-1.87.14,3.82,3.82,0,0,1-1.69-.9,3.77,3.77,0,0,1-1.07-1.56,3.14,3.14,0,0,1,0-1.85A4.78,4.78,0,0,1,551.2,508a3.87,3.87,0,0,1,1.37-1,2.93,2.93,0,0,1,1.75-.17,3.94,3.94,0,0,1,1.94,1.05Zm-2.45.92a1.64,1.64,0,0,0-1-.47,1.19,1.19,0,0,0-.93.45,1.31,1.31,0,0,0-.36,1,1.54,1.54,0,0,0,.54,1Z" transform="translate(-2.26 -31.05)"/><path class="cls-6" d="M562.51,502.42a2,2,0,0,1,.76,1.53,3.15,3.15,0,0,1-.86,2,6.46,6.46,0,0,1-1,1,13.25,13.25,0,0,1-1.14.76l-1.36-1.11a8.67,8.67,0,0,0,1.11-.5,2.51,2.51,0,0,0,.78-.65c.39-.48.45-.82.19-1a.44.44,0,0,0-.32-.09,1.93,1.93,0,0,0-.53.17c-.22.1-.51.24-.87.43a3.53,3.53,0,0,1-1.36.39,1.76,1.76,0,0,1-1.26-.42,1.8,1.8,0,0,1-.57-.88,2.27,2.27,0,0,1,0-1.24,3.47,3.47,0,0,1,.75-1.39c.09-.11.22-.25.37-.41a6.52,6.52,0,0,1,.67-.56,4.85,4.85,0,0,1,.91-.52l1.31,1.08-.4.14-.4.18a4.61,4.61,0,0,0-.52.32,2.73,2.73,0,0,0-.49.47.82.82,0,0,0-.25.56.47.47,0,0,0,.16.33.44.44,0,0,0,.35.07,2.62,2.62,0,0,0,.74-.33,7.12,7.12,0,0,1,1.34-.61,2.09,2.09,0,0,1,1-.08A2,2,0,0,1,562.51,502.42Z" transform="translate(-2.26 -31.05)"/></svg>